# xmcd
#
# Track frame offsets: 
#        150
#        13103
#        26469
#        41085
#        54371
#        67294
#        79966
#        92075
#        104250
#        116684
#        128319
#        140038
#        150205
#
# Disc length: 2165 seconds
#
# Revision: 0
# Processed by: cddbd v1.5.1PL0 Copyright (c) Steve Scherf et al.
# Submitted via: ExactAudioCopy v0.95b1
#
DISCID=a608730d
DTITLE=Salomon Robles - Toda Una Leyenda
DYEAR=2000
DGENRE=Latin
TTITLE0=Escuchame
TTITLE1=Que Te Han Visto Llorar
TTITLE2=Un Indio Quiere Llorar
TTITLE3=Tu Juguete
TTITLE4=La Huella De Mis Besos
TTITLE5=Mi Tesoro
TTITLE6=Vestido Mojado
TTITLE7=Amigo
TTITLE8=Ni Dada La Quiero
TTITLE9=Olvidarte
TTITLE10=Lastima De Mujer
TTITLE11=Los Pasos
TTITLE12=Caundo Un Destino
EXTD=
EXTT0=
EXTT1=
EXTT2=
EXTT3=
EXTT4=
EXTT5=
EXTT6=
EXTT7=
EXTT8=
EXTT9=
EXTT10=
EXTT11=
EXTT12=
PLAYORDER=
